<?xml version="1.0" encoding="UTF-8"?>
<svg id="Layer_1" data-name="Layer 1" xmlns="http://www.w3.org/2000/svg" version="1.1" viewBox="0 0 71.7 106.5">
  <defs>
    <style>
      .cls-1 {
        fill: #cacbd1;
        stroke-width: 0px;
      }
    </style>
  </defs>
  <path class="cls-1" d="M20.5,22.1l-13.1,3.1-1,5.9c-.3,1.4-.3,2.5-.2,3.1s.5.9,1.1,1.2,1.7.3,3.4,0l.2.9L.2,38.9l-.2-.9c1.4-.6,2.2-1.1,2.5-1.6.7-1,1.2-2.8,1.7-5.5L9.5.2l.9-.2,18.4,25.3c1.5,2,2.7,3.3,3.6,3.8s2.1.6,3.5.4l.2.9-13.3,3.1-.2-.9c1.3-.4,2.2-.8,2.6-1.3s.5-1,.4-1.6-.8-1.8-1.8-3.2l-3.2-4.4ZM19.4,20.5l-9-12.3-2.7,15,11.6-2.7Z"/>
  <path class="cls-1" d="M45.4,56.4c2.4.5,4.2,1.3,5.4,2.5,1.7,1.6,2.5,3.5,2.5,5.8s-.5,3.4-1.6,5-2.6,2.7-4.5,3.5-4.8,1.1-8.7,1.1h-16.4v-.9h1.3c1.5,0,2.5-.5,3.1-1.4.4-.6.6-1.9.6-3.8v-22.4c0-2.1-.2-3.5-.7-4.1-.7-.8-1.7-1.1-3-1.1h-1.3v-.9h15c2.8,0,5,.2,6.7.6,2.6.6,4.5,1.7,5.9,3.3s2,3.4,2,5.4-.5,3.3-1.6,4.7-2.6,2.4-4.7,3.1ZM31.9,55c.6.1,1.4.2,2.2.3s1.7,0,2.7,0c2.5,0,4.4-.3,5.6-.8s2.2-1.4,2.9-2.5,1-2.3,1-3.6c0-2-.8-3.8-2.5-5.2s-4.1-2.1-7.2-2.1-3.2.2-4.6.6v13.3ZM31.9,71.6c2,.5,3.9.7,5.9.7,3.1,0,5.4-.7,7.1-2.1s2.4-3.1,2.4-5.2-.4-2.6-1.1-3.9-1.9-2.2-3.6-2.9-3.7-1.1-6.1-1.1-2,0-2.7,0-1.4,0-1.8.2v14.2Z"/>
  <path class="cls-1" d="M62.6,91.2l-12.7-4.4-4,4.4c-1,1.1-1.6,1.9-1.8,2.6s0,1,.3,1.6,1.3,1.1,2.8,1.8l-.3.9-10.3-3.5.3-.9c1.5.2,2.5.2,3,0,1.1-.5,2.5-1.8,4.4-3.8l20.8-23.1.8.3,2.1,31.2c.2,2.5.5,4.2,1,5.1s1.4,1.6,2.8,2.2l-.3.9-13-4.4.3-.9c1.3.4,2.3.5,2.9.3s1-.6,1.2-1.1.3-1.9.2-3.7l-.4-5.4ZM62.6,89.2l-1-15.2-10.3,11.3,11.3,3.9Z"/>
</svg>